<svg xmlns="http://www.w3.org/2000/svg" width="400" height="300" viewBox="0 0 400 300">
  <defs>
    <style>
      .cls-1 {
        fill: #e6007e;
        stroke: #e6007e;
        stroke-width: 10px;
        fill-rule: evenodd;
      }
    </style>
  </defs>
  <path id="fugl_1" data-name="fugl 1" class="cls-1" d="M114.791,207.473s-13.825,2.421-12.645,21.389a150.036,150.036,0,0,1,34.773,12.384c11.072,5.678,33.11-3.371,40.042-3.378s55.91,10.6,63.224,10.132a17.565,17.565,0,0,0,11.591-5.629s-40.832-3.2-56.9-23.64c1.175-14.4,3.534-44.232,43.2-82.18S315,60,315,60s-114.62,59.436-134.878,83.305-18.4,48.529-29.5,56.288c-5.736-5.835-22.821-24.748-34.774-30.395-8.56-11.991-31.071-61.636-30.558-78.8C75.9,107.364,72.1,141.866,81.071,161.317s10.129,20.194,22.129,30.4S114.791,207.473,114.791,207.473Z"/>
</svg>
